<svg width="64" height="64" viewBox="0 0 64 64" fill="none" xmlns="http://www.w3.org/2000/svg">
<g clip-path="url(#clip0_0_3609)">
<rect width="64" height="64" rx="20" fill="#7156FD" fill-opacity="0.2"/>
<g clip-path="url(#clip1_0_3609)">
<path fill-rule="evenodd" clip-rule="evenodd" d="M41.807 23.993C41.807 24.9873 41.0009 25.793 40.007 25.793C39.013 25.793 38.207 24.9873 38.207 23.993C38.207 22.9988 39.013 22.193 40.007 22.193C41.0012 22.193 41.807 22.9988 41.807 23.993ZM32 36.9999C29.2386 36.9999 27.0001 34.7614 27.0001 32C27.0001 29.2386 29.2386 27.0001 32 27.0001C34.7614 27.0001 36.9999 29.2386 36.9999 32C36.9999 34.7614 34.7614 36.9999 32 36.9999ZM32 24.2973C27.7459 24.2973 24.2973 27.7459 24.2973 32C24.2973 36.2541 27.7459 39.7027 32 39.7027C36.2541 39.7027 39.7027 36.2541 39.7027 32C39.7027 27.7459 36.2541 24.2973 32 24.2973ZM32 19.7028C36.0052 19.7028 36.4796 19.718 38.0612 19.7902C39.5237 19.857 40.318 20.1013 40.8465 20.3068C41.5466 20.5789 42.0462 20.904 42.5712 21.429C43.0962 21.9537 43.4213 22.4534 43.6934 23.1537C43.8988 23.6823 44.1432 24.4766 44.21 25.9391C44.2822 27.5209 44.2974 27.9952 44.2974 32.0005C44.2974 36.0057 44.2822 36.4801 44.21 38.0616C44.1432 39.5241 43.899 40.3184 43.6934 40.847C43.4213 41.547 43.0962 42.0467 42.5712 42.5717C42.0465 43.0967 41.5468 43.4218 40.8465 43.6939C40.318 43.8992 39.5237 44.1437 38.0612 44.2105C36.4796 44.2827 36.0052 44.2979 32 44.2979C27.9945 44.2979 27.5202 44.2827 25.9386 44.2105C24.4761 44.1437 23.6818 43.8995 23.1533 43.6939C22.4532 43.4218 21.9535 43.0967 21.4285 42.5717C20.9038 42.047 20.5784 41.5473 20.3063 40.847C20.101 40.3184 19.8566 39.5241 19.7898 38.0616C19.7176 36.4798 19.7023 36.0055 19.7023 32.0005C19.7023 27.9952 19.7176 27.5209 19.7898 25.9391C19.8566 24.4766 20.1008 23.6823 20.3063 23.1537C20.5784 22.4537 20.9035 21.954 21.4285 21.429C21.9533 20.904 22.453 20.5789 23.1533 20.3068C23.6818 20.1015 24.4761 19.857 25.9386 19.7902C27.5204 19.718 27.9948 19.7028 32 19.7028ZM32 17C27.9263 17 27.4154 17.0173 25.8155 17.0902C24.219 17.1631 23.1284 17.4167 22.1745 17.7875C21.188 18.1707 20.3516 18.6837 19.5177 19.5177C18.6837 20.3516 18.1707 21.188 17.7875 22.1745C17.4167 23.1287 17.1631 24.219 17.0902 25.8155C17.0173 27.4154 17 27.9263 17 32C17 36.0737 17.0173 36.5846 17.0902 38.1845C17.1631 39.781 17.4167 40.8713 17.7875 41.8255C18.1707 42.812 18.6837 43.6484 19.5177 44.4823C20.3516 45.3162 21.188 45.8291 22.1745 46.2125C23.1287 46.5833 24.219 46.8369 25.8155 46.9098C27.4154 46.9827 27.9263 47 32 47C36.0737 47 36.5846 46.9827 38.1845 46.9098C39.781 46.8369 40.8713 46.5833 41.8255 46.2125C42.812 45.8291 43.6484 45.3162 44.4823 44.4823C45.3162 43.6484 45.8291 42.812 46.2125 41.8255C46.5833 40.8713 46.8369 39.781 46.9098 38.1845C46.9827 36.5846 47 36.0737 47 32C47 27.9263 46.9827 27.4154 46.9098 25.8155C46.8369 24.219 46.5833 23.1287 46.2125 22.1745C45.8291 21.188 45.3162 20.3516 44.4823 19.5177C43.6484 18.6837 42.812 18.1709 41.8255 17.7875C40.8713 17.4167 39.781 17.1631 38.1845 17.0902C36.5846 17.0173 36.0737 17 32 17Z" fill="#01FFC2"/>
</g>
</g>
<defs>
<clipPath id="clip0_0_3609">
<rect width="64" height="64" fill="white"/>
</clipPath>
<clipPath id="clip1_0_3609">
<rect width="30" height="30" fill="white" transform="translate(17 17)"/>
</clipPath>
</defs>
</svg>
